<?xml version="1.0" standalone="no"?>
<!DOCTYPE svg PUBLIC "-//W3C//DTD SVG 20010904//EN"
 "http://www.w3.org/TR/2001/REC-SVG-20010904/DTD/svg10.dtd">
<svg version="1.0" xmlns="http://www.w3.org/2000/svg"
 width="500.000000pt" height="500.000000pt" viewBox="0 0 500.000000 500.000000"
 preserveAspectRatio="xMidYMid meet">

<g transform="translate(0.000000,500.000000) scale(0.100000,-0.100000)"
fill="#ffffff" stroke="#ffffff">
<path d="M2643 4769 c-12 -4 -29 -18 -37 -31 -34 -52 -47 -276 -26 -448 23
-183 44 -263 155 -597 l24 -72 -30 -37 c-16 -20 -42 -46 -57 -58 -52 -39 -159
-141 -171 -164 -17 -32 -6 -42 42 -42 29 0 61 11 102 35 107 60 144 79 150 73
23 -23 35 -514 15 -628 -28 -160 -99 -309 -190 -400 -64 -64 -114 -99 -126
-87 -3 3 -8 62 -11 130 -5 117 -4 127 19 178 29 62 64 100 113 123 86 41 112
-64 50 -201 -13 -29 -22 -53 -19 -53 3 0 19 30 36 68 27 60 31 78 32 167 1
105 -8 136 -45 155 -88 47 -206 -122 -223 -320 -4 -48 8 -197 19 -242 6 -24 1
-30 -72 -79 -187 -125 -363 -309 -423 -444 -98 -215 -50 -459 118 -605 113
-98 293 -153 432 -132 44 6 63 6 65 -2 7 -18 35 -326 35 -374 0 -28 -8 -57
-21 -79 l-21 -34 -29 27 c-23 22 -41 29 -88 32 -82 6 -141 -21 -181 -84 -40
-63 -40 -112 -2 -155 25 -29 34 -32 84 -31 106 1 204 74 215 163 4 24 20 63
37 88 l31 46 0 213 0 212 55 26 c118 55 211 150 273 282 30 63 32 74 32 177 0
166 -42 267 -146 348 -74 58 -132 80 -225 85 l-82 4 -7 65 c-8 76 -8 75 92
149 40 30 73 59 73 64 0 6 6 10 13 10 21 1 342 322 370 370 33 58 77 258 84
381 7 111 -8 224 -42 340 -33 110 -55 143 -121 176 -62 31 -67 47 -30 96 32
43 90 160 117 238 19 53 23 87 23 194 1 124 0 132 -26 175 -31 53 -69 90 -122
120 -118 65 -236 220 -269 352 -9 33 -34 48 -64 37z m166 -519 c139 -54 201
-115 222 -221 9 -46 8 -66 -5 -111 -15 -51 -68 -138 -84 -138 -4 1 -23 35 -42
77 -19 42 -58 111 -87 152 -77 111 -95 149 -103 213 -8 70 -9 69 99 28z m-320
-2227 c1 -30 -4 -35 -51 -58 -176 -85 -258 -207 -245 -364 3 -37 12 -82 21
-101 28 -67 135 -150 192 -150 11 0 5 8 -17 23 -18 12 -48 42 -66 65 -31 41
-33 48 -33 128 0 95 12 133 60 188 36 40 124 96 153 96 14 0 17 -10 17 -62 0
-35 3 -79 6 -98 6 -35 4 -37 -51 -74 -66 -44 -101 -105 -90 -158 l7 -31 13 31
c16 36 50 61 100 72 25 6 38 5 40 -3 9 -25 35 -389 29 -399 -4 -7 -41 -9 -100
-6 -118 6 -184 36 -270 122 -81 81 -116 156 -122 259 -6 100 11 178 57 261 44
80 167 208 264 277 78 55 85 53 86 -18z m177 -178 c51 -21 150 -121 179 -179
54 -111 51 -236 -10 -355 -39 -78 -140 -171 -186 -171 -18 0 -21 18 -39 240
-6 69 -13 131 -15 138 -8 21 36 13 71 -13 18 -14 38 -41 44 -61 16 -46 7 -146
-14 -179 -18 -27 -21 -39 -7 -30 17 10 70 129 81 182 14 62 1 121 -36 171 -27
34 -71 62 -101 62 -34 0 -41 15 -48 113 l-7 97 26 0 c15 0 43 -7 62 -15z"/>
<path d="M1770 3723 c0 -4 7 -44 15 -88 17 -93 19 -161 5 -170 -13 -8 -39 86
-47 167 -3 38 -7 68 -9 68 -1 0 -74 -35 -161 -78 -230 -115 -399 -192 -473
-218 -97 -33 -272 -106 -391 -163 -58 -27 -116 -52 -130 -56 -14 -3 -38 -17
-55 -31 l-29 -25 30 14 c34 16 526 173 660 210 296 83 540 97 603 33 21 -20
30 -51 53 -178 16 -84 29 -169 29 -189 0 -20 9 -89 20 -154 12 -65 19 -122 17
-129 -2 -6 -12 3 -22 19 -11 17 -39 52 -62 79 -24 26 -43 52 -43 58 0 5 -5 6
-12 2 -6 -4 -8 -3 -4 4 3 6 -4 22 -16 37 l-23 26 3 -409 4 -410 -30 -7 c-40
-8 -102 -53 -179 -128 -67 -65 -82 -63 -34 6 35 51 80 94 143 136 60 40 62 44
48 87 -22 66 -111 93 -192 59 -54 -22 -160 -132 -203 -208 -61 -110 -88 -207
-83 -299 4 -64 9 -83 31 -111 43 -57 107 -82 207 -82 76 0 92 3 153 33 78 39
186 134 223 198 18 30 34 45 54 49 73 16 103 110 104 325 1 85 -1 196 -3 245
-5 88 -4 90 17 88 20 -3 22 2 22 41 0 84 -31 353 -56 491 -45 247 -84 486 -84
519 0 21 -13 51 -37 86 -35 49 -63 73 -63 53z"/>
<path d="M4075 3654 c-44 -26 -103 -62 -132 -80 -28 -19 -58 -34 -65 -34 -8 0
-34 -13 -59 -28 -24 -16 -53 -31 -63 -35 -34 -13 -182 -105 -207 -129 -37 -36
-211 -182 -239 -201 -13 -9 -21 -17 -17 -17 13 0 48 22 167 106 128 90 189
117 333 145 119 23 302 26 351 5 29 -12 35 -20 41 -58 4 -23 20 -108 36 -188
26 -135 69 -394 69 -420 0 -28 -23 0 -45 53 -12 31 -38 74 -57 95 -19 21 -49
59 -67 85 -17 26 -38 47 -45 47 -19 0 -25 -87 -31 -460 -4 -179 -8 -340 -11
-357 -4 -24 -13 -37 -35 -48 -16 -9 -67 -52 -112 -95 -45 -44 -83 -80 -85 -80
-11 0 32 56 88 115 89 92 106 126 91 177 -34 112 -205 98 -319 -27 -75 -82
-117 -172 -131 -285 -10 -79 -10 -106 2 -162 17 -77 33 -107 79 -141 67 -49
147 -59 253 -32 80 21 150 70 272 188 151 147 148 139 148 469 0 148 3 268 6
268 4 0 17 -16 30 -35 50 -73 52 -64 46 162 -4 115 -9 222 -13 239 -5 25 -2
32 19 41 19 9 27 21 29 45 2 18 8 32 14 31 6 -1 35 4 65 12 70 19 66 20 73
-20 5 -26 3 -40 -9 -51 -18 -19 -11 -34 16 -34 27 0 33 21 14 56 -8 16 -15 37
-15 46 0 45 -7 47 -83 26 -47 -13 -83 -30 -103 -50 l-31 -29 -7 23 c-13 49 -8
58 29 58 34 0 35 1 34 38 -1 21 -3 29 -6 17 -6 -24 -21 -35 -48 -35 -19 0 -24
16 -53 178 -18 103 -43 204 -58 242 -15 36 -35 94 -45 129 -10 36 -22 68 -27
73 -4 4 -44 -13 -87 -38z"/>
<path d="M608 3665 c-2 -11 -3 -76 -3 -144 0 -100 -3 -125 -15 -131 -8 -4 -27
-13 -41 -20 -35 -16 -53 -54 -39 -81 11 -19 45 -25 66 -11 20 13 35 52 29 72
-4 12 -2 20 4 20 7 0 11 27 11 68 0 78 6 89 32 65 24 -21 23 -59 -2 -103 l-21
-35 25 30 c28 32 42 97 33 150 -7 44 -76 148 -79 120z"/>
<path d="M2216 3642 c-2 -4 13 -9 36 -9 22 -1 46 -7 54 -14 10 -8 14 -8 14 -1
0 25 -91 45 -104 24z"/>
<path d="M468 3533 c4 -193 8 -211 10 -50 1 86 -1 157 -5 157 -5 0 -7 -48 -5
-107z"/>
<path d="M3372 3628 c-5 -7 -12 -22 -16 -34 -6 -20 -4 -21 46 -16 55 5 78 15
59 26 -6 4 -11 2 -11 -3 0 -18 -57 -13 -64 5 -3 9 -6 17 -6 19 0 2 19 6 43 8
l42 4 -41 1 c-23 1 -46 -4 -52 -10z"/>
<path d="M4338 3633 c12 -2 30 -2 40 0 9 3 -1 5 -23 4 -22 0 -30 -2 -17 -4z"/>
<path d="M4433 3633 c27 -4 28 -5 10 -18 -10 -8 -26 -15 -36 -15 -10 0 -16 -4
-12 -10 4 -6 15 -6 31 0 14 6 29 8 32 6 4 -2 8 7 8 20 2 21 -2 24 -30 23 l-31
-2 28 -4z"/>
<path d="M4518 3623 c7 -3 16 -2 19 1 4 3 -2 6 -13 5 -11 0 -14 -3 -6 -6z"/>
<path d="M4508 3583 c7 -3 16 -2 19 1 4 3 -2 6 -13 5 -11 0 -14 -3 -6 -6z"/>
<path d="M3330 3531 c0 -15 16 -22 34 -15 25 9 19 24 -9 24 -14 0 -25 -4 -25
-9z"/>
<path d="M2200 3481 c0 -6 -8 -11 -17 -11 -10 0 -25 -5 -33 -10 -13 -9 -13
-11 0 -20 10 -6 17 -5 23 6 5 9 16 12 33 8 27 -7 31 1 9 22 -8 9 -15 11 -15 5z"/>
<path d="M395 3400 c-3 -5 -1 -10 4 -10 6 0 11 5 11 10 0 6 -2 10 -4 10 -3 0
-8 -4 -11 -10z"/>
<path d="M462 3200 c0 -19 2 -27 5 -17 2 9 2 25 0 35 -3 9 -5 1 -5 -18z"/>
<path d="M2675 3199 c-4 -13 -28 -43 -54 -67 l-46 -43 48 27 c27 15 51 34 55
43 3 9 10 19 15 22 6 4 6 13 -1 24 -9 17 -10 16 -17 -6z"/>
<path d="M2340 3136 c0 -18 4 -24 14 -20 17 6 56 -41 56 -68 0 -16 -3 -17 -20
-8 -11 6 -23 22 -26 35 -13 53 -24 21 -22 -67 l2 -93 6 75 c4 41 7 64 8 50 1
-15 7 -31 13 -37 15 -15 47 -5 54 17 9 27 -23 94 -55 119 l-30 22 0 -25z"/>
<path d="M462 3130 c0 -14 2 -19 5 -12 2 6 2 18 0 25 -3 6 -5 1 -5 -13z"/>
<path d="M2694 3085 c-18 -27 -13 -55 10 -55 16 0 49 57 40 71 -10 17 -33 9
-50 -16z"/>
<path d="M472 2736 c-1 -203 0 -367 3 -364 3 2 5 52 6 111 1 90 3 107 17 110
15 4 15 5 0 6 -16 1 -18 22 -21 254 -2 211 -3 192 -5 -117z"/>
<path d="M2641 3064 c-19 -14 -41 -22 -48 -20 -7 3 -13 1 -13 -4 0 -6 -25 -21
-56 -35 -41 -18 -55 -29 -52 -42 3 -14 13 -18 48 -18 43 0 45 1 55 38 9 31 19
42 51 56 23 10 44 26 47 35 4 9 5 16 4 15 -1 0 -18 -12 -36 -25z"/>
<path d="M428 3073 c7 -3 16 -2 19 1 4 3 -2 6 -13 5 -11 0 -14 -3 -6 -6z"/>
<path d="M3410 3043 c0 -47 11 -70 36 -82 14 -6 24 -19 24 -31 0 -11 5 -20 10
-20 22 0 8 54 -26 106 -20 30 -38 54 -40 54 -2 0 -4 -12 -4 -27z"/>
<path d="M731 2945 c-42 -48 -71 -148 -71 -244 l0 -78 -45 -44 c-72 -70 -105
-128 -105 -183 0 -26 7 -60 15 -76 21 -41 95 -89 149 -96 38 -6 46 -11 47 -28
0 -11 2 -29 4 -39 2 -10 6 -80 10 -155 l7 -137 -21 33 c-17 26 -55 52 -76 52
-2 0 -13 -10 -25 -22 -21 -23 -27 -72 -10 -83 6 -4 8 -10 5 -15 -3 -5 4 -14
16 -20 30 -16 9 -34 -29 -25 -36 8 -45 18 -61 67 -31 96 -14 154 54 183 l30
12 -27 8 c-15 4 -48 5 -73 3 l-45 -3 -3 150 -3 150 -1 -168 c-1 -93 -4 -171
-7 -174 -9 -9 -7 -153 2 -153 4 0 15 -14 24 -30 34 -60 146 -80 208 -37 53 35
61 74 50 240 -6 78 -12 152 -15 164 -4 17 1 26 22 37 35 18 72 60 85 97 22 63
-35 139 -104 139 -26 0 -28 3 -28 40 0 36 4 41 38 59 38 20 134 126 164 184
26 48 12 90 -32 97 -29 4 -35 11 -48 47 -8 24 -26 51 -42 63 l-28 20 -31 -35z
m79 -74 c13 -26 13 -77 -1 -104 -17 -32 -101 -117 -111 -111 -12 7 -10 92 3
138 12 43 58 96 83 96 8 0 20 -9 26 -19z m-128 -382 c3 -22 -1 -34 -15 -44
-10 -7 -25 -23 -33 -34 -13 -18 -13 -20 1 -15 12 5 15 -2 15 -34 0 -33 3 -39
18 -36 13 4 20 -5 29 -33 6 -21 8 -42 3 -47 -15 -15 -70 5 -106 40 -33 30 -36
38 -31 72 7 53 79 160 108 162 4 0 9 -14 11 -31z m96 -116 c36 -31 37 -60 3
-93 -16 -17 -34 -30 -40 -30 -12 0 -31 64 -31 108 0 27 4 32 24 32 13 0 33 -8
44 -17z"/>
<path d="M2000 2944 c0 -9 7 -14 17 -12 25 5 28 28 4 28 -12 0 -21 -6 -21 -16z"/>
<path d="M2391 2927 c-24 -29 -24 -30 -2 -18 12 7 25 19 28 27 10 26 -1 22
-26 -9z"/>
<path d="M3422 2925 c0 -16 2 -22 5 -12 2 9 2 23 0 30 -3 6 -5 -1 -5 -18z"/>
<path d="M4440 2927 c-32 -16 -33 -51 -2 -55 26 -4 72 32 72 55 0 16 -37 17
-70 0z"/>
<path d="M3870 2916 l-35 -13 0 -76 c0 -74 -1 -77 -23 -77 -65 0 -108 -59 -58
-81 18 -8 30 -7 54 5 34 17 44 53 39 139 -3 48 -2 49 40 74 24 14 40 29 37 34
-6 11 -10 11 -54 -5z"/>
<path d="M1528 2913 c7 -3 16 -2 19 1 4 3 -2 6 -13 5 -11 0 -14 -3 -6 -6z"/>
<path d="M1448 2847 c-26 -17 -48 -40 -48 -49 0 -15 8 -13 50 12 l50 29 0 -48
c0 -46 -1 -49 -40 -66 -50 -23 -61 -35 -53 -63 8 -32 46 -28 77 9 24 28 26 38
26 120 0 49 -3 89 -7 89 -5 0 -29 -15 -55 -33z"/>
<path d="M3432 2855 c0 -16 2 -22 5 -12 2 9 2 23 0 30 -3 6 -5 -1 -5 -18z"/>
<path d="M2343 2835 c0 -22 2 -30 4 -17 2 12 2 30 0 40 -3 9 -5 -1 -4 -23z"/>
<path d="M2331 2764 c0 -11 3 -14 6 -6 3 7 2 16 -1 19 -3 4 -6 -2 -5 -13z"/>
<path d="M3407 2722 c-29 -18 -44 -52 -32 -73 10 -15 72 -5 96 17 23 21 25 60
3 68 -24 9 -37 7 -67 -12z"/>
<path d="M1342 2655 c-37 -16 -50 -39 -32 -60 29 -35 95 -1 88 46 -4 29 -15
32 -56 14z"/>
<path d="M3290 2632 c-29 -24 -21 -52 15 -52 28 0 68 35 62 53 -6 20 -52 19
-77 -1z"/>
<path d="M2591 2427 c-25 -28 -32 -41 -17 -27 26 23 71 80 64 80 -2 0 -23 -24
-47 -53z"/>
<path d="M2295 2415 c-30 -23 -31 -41 -4 -30 15 6 43 44 37 51 -2 2 -17 -8
-33 -21z"/>
<path d="M2031 2394 c0 -11 3 -14 6 -6 3 7 2 16 -1 19 -3 4 -6 -2 -5 -13z"/>
<path d="M401 2356 c-7 -8 -8 -17 -3 -20 6 -3 12 3 15 14 6 24 4 25 -12 6z"/>
<path d="M923 2353 c9 -2 25 -2 35 0 9 3 1 5 -18 5 -19 0 -27 -2 -17 -5z"/>
<path d="M998 2353 c12 -2 32 -2 45 0 12 2 2 4 -23 4 -25 0 -35 -2 -22 -4z"/>
<path d="M4410 2340 c0 -18 3 -19 20 -10 11 6 20 15 20 20 0 6 -9 10 -20 10
-13 0 -20 -7 -20 -20z"/>
<path d="M3310 2240 c-12 -8 -10 -10 8 -10 13 0 20 4 17 10 -7 12 -6 12 -25 0z"/>
<path d="M2990 2197 c27 -15 36 -14 25 2 -3 6 -16 11 -28 11 -21 0 -21 -1 3
-13z"/>
<path d="M1070 2193 c19 -3 38 -10 42 -16 5 -8 8 -6 8 6 0 14 -8 17 -42 15
-41 -1 -41 -1 -8 -5z"/>
<path d="M1102 2095 c-13 -28 -2 -34 18 -10 9 11 10 19 3 26 -6 6 -13 1 -21
-16z"/>
<path d="M2761 2096 c-7 -8 -8 -17 -3 -20 6 -3 12 3 15 14 6 24 4 25 -12 6z"/>
<path d="M408 2043 c7 -3 16 -2 19 1 4 3 -2 6 -13 5 -11 0 -14 -3 -6 -6z"/>
<path d="M4384 1949 c-7 -12 15 -31 28 -23 9 6 -1 34 -12 34 -5 0 -12 -5 -16
-11z"/>
<path d="M4380 1895 c0 -8 2 -15 4 -15 2 0 6 7 10 15 3 8 1 15 -4 15 -6 0 -10
-7 -10 -15z"/>
<path d="M4412 1901 c2 -7 7 -12 11 -12 12 1 9 15 -3 20 -7 2 -11 -2 -8 -8z"/>
<path d="M463 1805 c0 -27 2 -38 4 -22 2 15 2 37 0 50 -2 12 -4 0 -4 -28z"/>
<path d="M4307 1773 c-14 -13 -7 -43 11 -43 14 0 14 2 3 9 -8 5 -11 16 -8 25
7 17 5 20 -6 9z"/>
<path d="M472 1710 c0 -14 2 -19 5 -12 2 6 2 18 0 25 -3 6 -5 1 -5 -13z"/>
</g>
</svg>
