<?xml version="1.0" standalone="no"?>
<!DOCTYPE svg PUBLIC "-//W3C//DTD SVG 20010904//EN"
 "http://www.w3.org/TR/2001/REC-SVG-20010904/DTD/svg10.dtd">
<svg version="1.0" xmlns="http://www.w3.org/2000/svg"
 width="475.000000pt" height="162.000000pt" viewBox="0 0 475.000000 162.000000"
 preserveAspectRatio="xMidYMid meet">

<g transform="translate(0.000000,162.000000) scale(0.100000,-0.100000)"
fill="#ffffff" stroke="#fff">
<path d="M887 1313 c-16 -15 -5 -34 32 -52 86 -44 111 -112 71 -190 -55 -109
-219 -283 -343 -365 -176 -116 -240 -249 -187 -387 43 -116 102 -167 199 -176
90 -8 153 25 221 113 60 81 108 122 158 140 54 18 53 44 -1 97 -50 48 -122 77
-192 77 -49 0 -79 -22 -70 -51 8 -23 -35 -69 -64 -69 -11 0 -25 9 -31 20 -16
31 9 78 85 159 67 71 95 87 95 54 0 -16 1 -16 18 0 13 14 14 19 4 26 -15 9 -5
41 13 41 7 0 15 -5 17 -12 2 -6 9 -8 16 -4 9 5 9 12 -1 26 -9 16 -8 23 6 37
17 17 19 17 28 1 5 -10 16 -15 24 -12 20 8 19 34 0 34 -17 0 -19 18 -6 39 8
12 12 12 25 2 15 -13 36 -7 36 10 0 5 -7 9 -15 9 -19 0 -19 20 -1 46 12 15 17
16 27 7 9 -9 16 -10 26 -2 18 16 16 27 -7 34 -13 4 -20 15 -20 31 0 25 18 32
36 14 8 -8 15 -6 23 4 18 21 6 34 -24 28 -14 -2 -25 0 -25 6 0 14 26 33 34 25
4 -4 11 -1 16 7 14 22 12 28 -12 32 -16 2 -26 17 -40 57 -22 66 -36 82 -104
121 -59 33 -58 33 -67 23z m-177 -637 c0 -3 -4 -8 -10 -11 -5 -3 -10 -1 -10 4
0 6 5 11 10 11 6 0 10 -2 10 -4z m225 -147 c54 -20 125 -71 125 -90 0 -15 -27
-10 -62 10 -18 11 -52 24 -75 30 -24 6 -61 16 -83 21 -37 10 -50 27 -33 43 13
13 73 7 128 -14z m-251 -181 c20 -28 20 -38 1 -38 -9 0 -15 10 -15 26 0 14 -4
23 -10 19 -5 -3 -10 -1 -10 4 0 18 18 12 34 -11z m39 -85 c-7 -2 -19 -2 -25 0
-7 3 -2 5 12 5 14 0 19 -2 13 -5z m67 -17 c0 -3 -4 -8 -10 -11 -5 -3 -10 -1
-10 4 0 6 5 11 10 11 6 0 10 -2 10 -4z"/>
<path d="M4124 1032 c-6 -4 -37 -97 -69 -207 -31 -110 -73 -244 -92 -298 -31
-90 -36 -126 -15 -101 5 5 30 86 57 179 27 94 68 228 92 299 23 71 42 131 40
132 -1 2 -7 0 -13 -4z"/>
<path d="M1915 1012 c-71 -24 -120 -65 -150 -125 -47 -95 -29 -200 49 -279 71
-71 207 -90 303 -43 28 14 54 33 57 41 4 11 -1 10 -20 -5 -60 -47 -164 -39
-226 17 -58 52 -80 103 -86 194 -4 64 -1 84 17 120 30 61 62 81 127 81 39 0
60 -5 75 -19 35 -31 52 -74 46 -116 -6 -47 0 -43 49 28 l39 56 -29 23 c-59 47
-162 58 -251 27z"/>
<path d="M2596 1014 c-31 -30 -9 -84 34 -84 24 0 50 37 43 59 -7 20 -32 41
-49 41 -7 0 -20 -7 -28 -16z"/>
<path d="M2285 870 c-22 -4 -32 -8 -22 -9 15 -1 17 -16 17 -156 l0 -155 48 0
47 0 -2 128 c-3 221 0 202 -25 201 -13 -1 -41 -5 -63 -9z"/>
<path d="M2433 865 c-17 -7 -37 -24 -43 -37 -10 -19 -10 -21 1 -10 22 20 47
14 56 -15 l9 -27 27 44 c14 24 24 47 21 52 -7 12 -34 9 -71 -7z"/>
<path d="M2590 870 c-25 -4 -35 -8 -22 -8 l23 -2 -3 -155 -3 -155 53 0 c50 0
52 1 42 21 -7 13 -10 72 -8 165 3 163 12 149 -82 134z"/>
<path d="M2845 873 c-39 -9 -75 -54 -75 -92 1 -58 39 -92 125 -111 27 -6 58
-18 67 -27 26 -23 22 -60 -6 -78 -45 -30 -117 -2 -151 59 -9 16 -12 14 -28
-13 l-18 -30 31 -16 c74 -38 181 -28 220 22 48 61 13 133 -78 159 -80 23 -102
39 -102 74 0 41 30 56 81 41 27 -8 44 -21 55 -43 l16 -31 19 24 c10 13 19 27
19 30 0 4 -18 14 -40 23 -39 15 -93 19 -135 9z"/>
<path d="M3199 852 c-124 -65 -134 -228 -18 -290 37 -20 53 -23 99 -17 30 3
62 6 70 7 8 1 40 -2 70 -6 39 -5 51 -4 40 3 -12 8 -15 38 -16 148 -1 76 -2
143 -3 150 -1 14 -85 33 -145 33 -28 0 -63 -10 -97 -28z m153 -10 c5 -5 7 -66
6 -137 l-3 -128 -29 -10 c-72 -24 -136 53 -136 163 0 77 19 117 63 128 32 9
83 0 99 -16z"/>
<path d="M3550 871 c0 -6 5 -13 10 -16 13 -8 110 -151 110 -162 0 -5 -28 -39
-63 -76 -39 -42 -57 -67 -47 -68 8 -1 25 -3 38 -4 21 -2 22 -1 6 16 -15 17
-13 21 33 70 l50 52 41 -67 c25 -38 50 -66 60 -67 9 0 32 -2 50 -3 37 -4 40 3
11 30 -23 21 -109 147 -109 160 0 5 27 38 60 72 33 35 60 65 60 68 0 2 -16 4
-35 4 -36 0 -43 -8 -24 -27 9 -9 0 -24 -33 -59 l-44 -47 -42 67 c-42 65 -43
66 -87 66 -25 0 -45 -4 -45 -9z"/>
<path d="M1560 806 c-47 -17 -84 -36 -83 -41 3 -12 151 -67 167 -62 6 2 -26
16 -71 31 -46 15 -83 29 -83 31 0 1 36 16 80 31 44 16 80 32 80 36 0 5 -1 8
-2 7 -2 0 -41 -15 -88 -33z"/>
<path d="M4220 826 c0 -2 36 -16 80 -31 44 -15 80 -28 80 -30 0 -3 -39 -17
-87 -32 -49 -15 -81 -29 -73 -31 22 -4 175 51 175 63 0 6 -34 22 -75 37 -73
26 -100 32 -100 24z"/>
<path d="M961 640 c-7 -17 -11 -34 -7 -37 6 -7 28 46 24 59 -2 4 -9 -6 -17
-22z"/>
<path d="M1070 615 c-13 -14 -20 -28 -17 -32 4 -3 8 -4 10 -2 1 2 13 16 26 32
31 34 13 36 -19 2z"/>
<path d="M1195 581 c-41 -18 -87 -61 -67 -61 6 0 14 5 17 10 4 6 30 24 58 40
58 33 53 39 -8 11z"/>
</g>
</svg>
